<?xml version="1.0" encoding="UTF-8"?>
<svg id="Calque_1" data-name="Calque 1" xmlns="http://www.w3.org/2000/svg" viewBox="0 0 300 200">
  <defs>
    <style>
      .cls-1 {
        fill: #e8c6c1;
        stroke-width: 0px;
      }
    </style>
  </defs>
  <path class="cls-1" d="M285.19,109.07c4.62,7.82,7.25,16.87,7.25,26.49,0,29.89-25.37,54.12-56.65,54.12-12.67,0-24.36-3.97-33.79-10.68.58-1.02,1.09-2.09,1.5-3.2-1.4.38-2.83.74-4.26,1.09.9.73,1.82,1.43,2.76,2.1-4.27,7.59-12.67,12.74-22.33,12.74-7.5,0-14.24-3.11-18.88-8.06-.11,9.03-7.79,16.31-17.27,16.31-7.54,0-13.95-4.62-16.31-11.06-7.87,6.26-17.98,10.03-29.02,10.03-21.25,0-39.06-13.96-43.97-32.79-.01-.02-.01-.03-.02-.05-.01.02-.02.03-.03.03-5.75,5.02-13.4,8.07-21.8,8.07-17.88,0-32.37-13.85-32.37-30.93,0-8.2,3.35-15.65,8.81-21.19.59-.62,1.23-1.22,1.89-1.77-1.03-1.14-2-2.34-2.89-3.59-4.92-6.8-7.8-15.07-7.8-23.97,0-23.34,19.81-42.27,44.24-42.27,5.77,0,11.29,1.05,16.34,2.97-.08.79-.12,1.6-.14,2.41.99-.41,2.01-.81,3.02-1.2-.94-.43-1.9-.84-2.88-1.22,1.7-18.42,17.89-32.87,37.62-32.87,15.15,0,28.21,8.52,34.23,20.81,1.67-.07,3.35-.11,5.03-.14C143.29,17.62,165.53,0,192.09,0c30.14,0,54.72,22.69,56.05,51.16,4.88-2.39,10.39-3.74,16.25-3.74,19.67,0,35.61,15.23,35.61,34.02,0,11.37-5.84,21.44-14.81,27.63Z"/>
</svg>